<?xml version="1.0" encoding="utf-8"?>
<!-- Generator: Adobe Illustrator 19.0.0, SVG Export Plug-In . SVG Version: 6.00 Build 0)  -->
<svg version="1.1" id="Capa_1" xmlns="http://www.w3.org/2000/svg" xmlns:xlink="http://www.w3.org/1999/xlink" x="0px" y="0px"
	 viewBox="0 0 595.3 841.9" style="enable-background:new 0 0 595.3 841.9;" xml:space="preserve">
<style type="text/css">
	.st0{fill:#FFFFFF;}
	.st1{stroke:#000000;stroke-miterlimit:10;}
</style>
<g>
	<g>
	</g>
	<g>
	</g>
	<rect x="30.9" y="232.3" class="st0" width="513.4" height="143"/>
	<g>
		<path class="st1" d="M92.2,282.7c-1.2-5.2-4.2-8.9-8.9-11c-2.6-1.1-5.6-1.7-8.8-1.7c-6.2,0-11.2,2.3-15.2,7c-4,4.7-6,11.7-6,21
			c0,9.4,2.1,16.1,6.4,20c4.3,3.9,9.2,5.9,14.7,5.9c5.4,0,9.8-1.5,13.2-4.6c3.4-3.1,5.5-7.1,6.3-12.1H76.3v-12.8h31.9v41.1H97.6
			l-1.6-9.6c-3.1,3.6-5.9,6.2-8.3,7.7c-4.2,2.6-9.4,3.9-15.6,3.9c-10.2,0-18.5-3.5-25-10.6c-6.8-7.1-10.1-16.7-10.1-29
			c0-12.4,3.4-22.4,10.2-29.8c6.8-7.5,15.9-11.2,27.1-11.2c9.7,0,17.6,2.5,23.5,7.4c5.9,4.9,9.3,11.1,10.2,18.5H92.2z"/>
		<path class="st1" d="M163.5,282c3.7,3.1,5.6,8.2,5.6,15.3v38.2h-15.2V301c0-3-0.4-5.3-1.2-6.9c-1.4-2.9-4.2-4.4-8.3-4.4
			c-5,0-8.4,2.1-10.3,6.4c-1,2.3-1.4,5.1-1.4,8.6v30.7h-14.8v-56.6h14.4v8.3c1.9-2.9,3.7-5,5.4-6.3c3-2.3,6.9-3.4,11.6-3.4
			C155,277.4,159.8,279,163.5,282z"/>
		<path class="st1" d="M225.4,328.5c-4.8,5.9-12.1,8.9-21.8,8.9c-9.7,0-17-3-21.8-8.9c-4.8-5.9-7.2-13-7.2-21.3
			c0-8.2,2.4-15.3,7.2-21.3c4.8-6,12-9,21.8-9c9.7,0,17,3,21.8,9s7.2,13.1,7.2,21.3C232.6,315.5,230.2,322.6,225.4,328.5z
			 M213.5,320.3c2.3-3.1,3.5-7.5,3.5-13.1c0-5.7-1.2-10-3.5-13.1c-2.3-3.1-5.7-4.6-10-4.6c-4.3,0-7.7,1.5-10,4.6
			c-2.3,3.1-3.5,7.4-3.5,13.1c0,5.7,1.2,10.1,3.5,13.1c2.3,3.1,5.7,4.6,10,4.6C207.9,325,211.2,323.4,213.5,320.3z"/>
		<path class="st1" d="M309.3,279c2.4,1,4.6,2.7,6.6,5.1c1.6,2,2.7,4.4,3.2,7.3c0.3,1.9,0.5,4.7,0.5,8.4l-0.1,35.7h-15.2v-36.1
			c0-2.1-0.3-3.9-1-5.3c-1.3-2.6-3.7-4-7.3-4c-4.1,0-6.9,1.7-8.5,5.1c-0.8,1.8-1.2,4-1.2,6.5v33.8h-14.9v-33.8c0-3.4-0.3-5.8-1-7.3
			c-1.2-2.7-3.7-4.1-7.3-4.1c-4.2,0-7.1,1.4-8.5,4.1c-0.8,1.6-1.2,3.9-1.2,7v34.1h-15v-56.6h14.4v8.3c1.8-2.9,3.6-5,5.2-6.3
			c2.9-2.2,6.6-3.3,11.2-3.3c4.3,0,7.8,1,10.5,2.9c2.1,1.8,3.8,4,4.9,6.8c1.9-3.3,4.4-5.8,7.2-7.3c3.1-1.6,6.4-2.3,10.2-2.3
			C304.4,277.5,306.9,278,309.3,279z"/>
		<path class="st1" d="M351.3,301c2.8-0.3,4.7-0.8,5.9-1.3c2.1-0.9,3.2-2.3,3.2-4.2c0-2.3-0.8-3.9-2.5-4.8c-1.6-0.9-4-1.3-7.2-1.3
			c-3.5,0-6.1,0.9-7.5,2.6c-1.1,1.3-1.8,3-2.1,5.2h-14.3c0.3-5,1.7-9,4.2-12.2c3.9-5,10.7-7.5,20.3-7.5c6.2,0,11.8,1.2,16.6,3.7
			c4.8,2.5,7.3,7.1,7.3,13.9v26c0,1.8,0,4,0.1,6.6c0.1,1.9,0.4,3.3,0.9,4c0.5,0.7,1.2,1.3,2.2,1.7v2.2h-16.1
			c-0.5-1.1-0.8-2.2-0.9-3.2c-0.2-1-0.3-2.2-0.4-3.4c-2.1,2.2-4.4,4.1-7.1,5.7c-3.2,1.8-6.8,2.8-10.9,2.8c-5.2,0-9.4-1.5-12.8-4.4
			c-3.4-2.9-5-7.1-5-12.5c0-7,2.7-12,8.1-15.1c3-1.7,7.3-2.9,13.1-3.6L351.3,301z M360.4,307.9c-0.9,0.6-1.9,1.1-2.9,1.4
			c-1,0.4-2.3,0.7-4,1l-3.4,0.6c-3.2,0.6-5.4,1.2-6.8,2c-2.3,1.4-3.5,3.5-3.5,6.3c0,2.5,0.7,4.4,2.1,5.5c1.4,1.1,3.2,1.7,5.2,1.7
			c3.2,0,6.2-0.9,9-2.8c2.7-1.9,4.1-5.3,4.3-10.2V307.9z"/>
		<path class="st1" d="M398.7,335.5h-14.8v-76.7h14.8V335.5z"/>
		<path class="st1" d="M431.1,301c2.8-0.3,4.7-0.8,5.9-1.3c2.1-0.9,3.2-2.3,3.2-4.2c0-2.3-0.8-3.9-2.5-4.8c-1.6-0.9-4-1.3-7.2-1.3
			c-3.5,0-6.1,0.9-7.5,2.6c-1.1,1.3-1.8,3-2.1,5.2h-14.3c0.3-5,1.7-9,4.2-12.2c3.9-5,10.7-7.5,20.3-7.5c6.2,0,11.8,1.2,16.6,3.7
			c4.8,2.5,7.3,7.1,7.3,13.9v26c0,1.8,0,4,0.1,6.6c0.1,1.9,0.4,3.3,0.9,4c0.5,0.7,1.2,1.3,2.2,1.7v2.2h-16.1
			c-0.5-1.1-0.8-2.2-0.9-3.2c-0.2-1-0.3-2.2-0.4-3.4c-2.1,2.2-4.4,4.1-7.1,5.7c-3.2,1.8-6.8,2.8-10.9,2.8c-5.2,0-9.4-1.5-12.8-4.4
			c-3.4-2.9-5-7.1-5-12.5c0-7,2.7-12,8.1-15.1c3-1.7,7.3-2.9,13.1-3.6L431.1,301z M440.1,307.9c-0.9,0.6-1.9,1.1-2.9,1.4
			c-1,0.4-2.3,0.7-4,1l-3.4,0.6c-3.2,0.6-5.4,1.2-6.8,2c-2.3,1.4-3.5,3.5-3.5,6.3c0,2.5,0.7,4.4,2.1,5.5c1.4,1.1,3.2,1.7,5.2,1.7
			c3.2,0,6.2-0.9,9-2.8c2.7-1.9,4.1-5.3,4.3-10.2V307.9z"/>
		<path class="st1" d="M512,285.6c4.2,5.4,6.4,12.3,6.4,20.8c0,8.8-2.1,16.1-6.3,21.9c-4.2,5.8-10,8.7-17.5,8.7
			c-4.7,0-8.5-0.9-11.3-2.8c-1.7-1.1-3.6-3.1-5.5-5.8v7.1h-14.6v-76.6h14.8v27.3c1.9-2.6,4-4.6,6.2-6c2.7-1.7,6.1-2.6,10.3-2.6
			C501.9,277.5,507.8,280.2,512,285.6z M499.6,320.1c2.1-3.1,3.2-7.1,3.2-12.2c0-4-0.5-7.4-1.6-10c-2-5-5.7-7.5-11-7.5
			c-5.4,0-9.1,2.4-11.2,7.3c-1,2.6-1.6,6-1.6,10.1c0,4.9,1.1,8.9,3.3,12.1c2.2,3.2,5.5,4.8,9.9,4.8
			C494.5,324.8,497.5,323.2,499.6,320.1z"/>
		<path class="st1" d="M523.4,319.9h15.8v15.6h-15.8V319.9z"/>
	</g>
</g>
</svg>
